<svg xmlns="http://www.w3.org/2000/svg" xmlns:xlink="http://www.w3.org/1999/xlink" width="1920" zoomAndPan="magnify" viewBox="0 0 1440 809.999993" height="1080" preserveAspectRatio="xMidYMid meet" version="1.0"><defs><filter x="0%" y="0%" width="100%" height="100%" id="06ebc2e25d"><feColorMatrix values="0 0 0 0 1 0 0 0 0 1 0 0 0 0 1 0 0 0 1 0" color-interpolation-filters="sRGB"/></filter><mask id="e92f2bdf9f"><g filter="url(#06ebc2e25d)"><rect x="-144" width="1728" fill="#000000" y="-80.999999" height="971.999992" fill-opacity="0.4"/></g></mask><clipPath id="59bf881bbb"><path d="M 239 0 L 481 0 L 481 41 L 239 41 Z M 239 0 " clip-rule="nonzero"/></clipPath><clipPath id="9ff7e0f3ee"><path d="M 0 0 L 241 0 L 241 41 L 0 41 Z M 0 0 " clip-rule="nonzero"/></clipPath><clipPath id="92fc9fee05"><path d="M 0 0 L 241 0 L 241 140 L 0 140 Z M 0 0 " clip-rule="nonzero"/></clipPath><clipPath id="c84d9679ca"><path d="M 239 0 L 481 0 L 481 140 L 239 140 Z M 239 0 " clip-rule="nonzero"/></clipPath><clipPath id="b0e0a02e36"><path d="M 719 0 L 960 0 L 960 38 L 719 38 Z M 719 0 " clip-rule="nonzero"/></clipPath><clipPath id="da6c128dc0"><path d="M 719 0 L 960 0 L 960 137 L 719 137 Z M 719 0 " clip-rule="nonzero"/></clipPath><clipPath id="511072646b"><path d="M 479 0 L 721 0 L 721 27 L 479 27 Z M 479 0 " clip-rule="nonzero"/></clipPath><clipPath id="85beb8efa4"><path d="M 479 0 L 721 0 L 721 126 L 479 126 Z M 479 0 " clip-rule="nonzero"/></clipPath><clipPath id="6c82215b9b"><path d="M 1198 0 L 1440 0 L 1440 41 L 1198 41 Z M 1198 0 " clip-rule="nonzero"/></clipPath><clipPath id="8147a57f40"><path d="M 1198 0 L 1440 0 L 1440 140 L 1198 140 Z M 1198 0 " clip-rule="nonzero"/></clipPath><clipPath id="51ef6967fe"><path d="M 959 0 L 1200 0 L 1200 41 L 959 41 Z M 959 0 " clip-rule="nonzero"/></clipPath><clipPath id="c5b0222f53"><path d="M 959 0 L 1200 0 L 1200 140 L 959 140 Z M 959 0 " clip-rule="nonzero"/></clipPath><clipPath id="a396d9e023"><rect x="0" width="1440" y="0" height="610"/></clipPath></defs><rect x="-144" width="1728" fill="#ffffff" y="-80.999999" height="971.999992" fill-opacity="1"/><rect x="-144" width="1728" fill="#052449" y="-80.999999" height="971.999992" fill-opacity="1"/><g mask="url(#e92f2bdf9f)"><g transform="matrix(1, 0, 0, 1, 0, 0.000000000000039746)"><g clip-path="url(#a396d9e023)"><path fill="#3580b1" d="M 479.851562 184.765625 L 479.699219 184.390625 L 480.226562 184.164062 L 480.226562 184.765625 Z M 240.300781 336.265625 L 240.449219 336.640625 L 239.925781 336.863281 L 239.925781 336.265625 Z M 467.023438 239.589844 L 466.875 239.214844 Z M 252.976562 281.140625 L 479.773438 184.390625 L 480.074219 185.0625 L 253.273438 281.8125 Z M 240.148438 335.890625 L 466.875 239.214844 L 467.175781 239.890625 L 240.449219 336.640625 Z M 239.925781 336.265625 L 239.925781 300.863281 L 240.675781 300.863281 L 240.675781 336.265625 Z M 479.476562 220.164062 L 479.476562 184.765625 L 480.226562 184.765625 L 480.226562 220.164062 Z M 466.875 239.214844 C 474.523438 235.988281 479.476562 228.414062 479.476562 220.164062 L 480.226562 220.164062 C 480.226562 228.789062 475.050781 236.515625 467.175781 239.964844 Z M 253.273438 281.8125 C 245.625 285.039062 240.675781 292.613281 240.675781 300.863281 L 239.925781 300.863281 C 239.925781 292.238281 245.101562 284.515625 252.976562 281.0625 Z M 253.273438 281.8125 " fill-opacity="1" fill-rule="nonzero"/><g clip-path="url(#59bf881bbb)"><path fill="#3580b1" d="M 479.851562 -111.1875 L 479.699219 -111.5625 L 480.226562 -111.785156 L 480.226562 -111.1875 Z M 240.300781 40.3125 L 240.449219 40.6875 L 239.925781 40.914062 L 239.925781 40.3125 Z M 467.023438 -56.359375 L 466.875 -56.734375 Z M 252.976562 -14.8125 L 479.699219 -111.484375 L 480 -110.8125 L 253.273438 -14.136719 Z M 240.148438 40.015625 L 466.875 -56.734375 L 467.175781 -56.0625 L 240.449219 40.6875 Z M 239.925781 40.3125 L 239.925781 4.914062 L 240.675781 4.914062 L 240.675781 40.3125 Z M 479.476562 -75.785156 L 479.476562 -111.1875 L 480.226562 -111.1875 L 480.226562 -75.785156 Z M 466.875 -56.734375 C 474.523438 -59.960938 479.476562 -67.535156 479.476562 -75.785156 L 480.226562 -75.785156 C 480.226562 -67.160156 475.050781 -59.4375 467.175781 -55.984375 Z M 253.273438 -14.136719 C 245.625 -10.910156 240.675781 -3.335938 240.675781 4.914062 L 239.925781 4.914062 C 239.925781 -3.710938 245.101562 -11.4375 252.976562 -14.886719 Z M 253.273438 -14.136719 " fill-opacity="1" fill-rule="nonzero"/></g><path fill="#3580b1" d="M 479.851562 86.140625 L 479.699219 85.765625 L 480.226562 85.539062 L 480.226562 86.140625 Z M 240.300781 237.640625 L 240.449219 238.015625 L 239.925781 238.238281 L 239.925781 237.640625 Z M 467.023438 140.890625 L 466.875 140.515625 Z M 252.976562 182.4375 L 479.699219 85.765625 L 480 86.4375 L 253.273438 183.1875 Z M 240.148438 237.265625 L 466.875 140.589844 L 467.175781 141.265625 L 240.449219 237.9375 Z M 239.925781 237.640625 L 239.925781 202.238281 L 240.675781 202.238281 L 240.675781 237.640625 Z M 479.476562 121.464844 L 479.476562 86.140625 L 480.226562 86.140625 L 480.226562 121.539062 L 479.476562 121.539062 Z M 466.875 140.589844 C 474.523438 137.363281 479.476562 129.789062 479.476562 121.539062 L 480.226562 121.539062 C 480.226562 130.164062 475.050781 137.890625 467.175781 141.339844 Z M 253.273438 183.1875 C 245.625 186.414062 240.675781 193.988281 240.675781 202.238281 L 239.925781 202.238281 C 239.925781 193.613281 245.101562 185.890625 252.976562 182.4375 Z M 253.273438 183.1875 " fill-opacity="1" fill-rule="nonzero"/><path fill="#3580b1" d="M 479.851562 283.390625 L 479.699219 283.015625 L 480.226562 282.789062 L 480.226562 283.390625 Z M 240.300781 434.890625 L 240.449219 435.265625 L 239.925781 435.488281 L 239.925781 434.890625 Z M 467.023438 338.214844 L 466.875 337.839844 Z M 252.976562 379.765625 L 479.699219 283.089844 L 480 283.765625 L 253.273438 380.4375 Z M 240.148438 434.589844 L 466.875 337.914062 L 467.175781 338.589844 L 240.449219 435.265625 Z M 239.925781 434.890625 L 239.925781 399.488281 L 240.675781 399.488281 L 240.675781 434.890625 Z M 479.476562 318.789062 L 479.476562 283.390625 L 480.226562 283.390625 L 480.226562 318.789062 Z M 466.875 337.839844 C 474.523438 334.613281 479.476562 327.039062 479.476562 318.789062 L 480.226562 318.789062 C 480.226562 327.414062 475.050781 335.140625 467.175781 338.589844 Z M 253.273438 380.4375 C 245.625 383.664062 240.675781 391.238281 240.675781 399.488281 L 239.925781 399.488281 C 239.925781 390.863281 245.101562 383.140625 252.976562 379.6875 Z M 253.273438 380.4375 " fill-opacity="1" fill-rule="nonzero"/><g clip-path="url(#9ff7e0f3ee)"><path fill="#3580b1" d="M 0.75 -61.835938 L 0.601562 -61.460938 L 0.375 -61.609375 L 0.375 -61.835938 Z M 240.300781 40.3125 L 240.675781 40.3125 L 240.675781 40.914062 L 240.148438 40.6875 Z M 30.300781 -98.960938 L 227.625 -14.8125 L 227.324219 -14.136719 L 30 -98.285156 Z M 0.898438 -62.210938 L 240.449219 40.015625 L 240.148438 40.6875 L 0.601562 -61.535156 Z M 239.925781 40.3125 L 239.925781 4.914062 L 240.675781 4.914062 L 240.675781 40.3125 Z M 0.375 -61.835938 L 0.375 -79.234375 L 1.125 -79.234375 L 1.125 -61.835938 Z M 227.625 -14.8125 C 235.574219 -11.4375 240.675781 -3.636719 240.675781 4.988281 L 239.925781 4.988281 C 239.925781 -3.335938 234.976562 -10.835938 227.324219 -14.0625 Z M 30 -98.285156 C 16.351562 -104.136719 1.125 -94.085938 1.125 -79.234375 L 0.375 -79.234375 C 0.375 -94.609375 16.125 -105.035156 30.300781 -99.035156 Z M 30 -98.285156 " fill-opacity="1" fill-rule="nonzero"/></g><path fill="#3580b1" d="M 0.75 135.414062 L 0.601562 135.789062 L 0.375 135.714844 L 0.375 135.488281 L 0.75 135.488281 Z M 240.300781 237.640625 L 240.675781 237.640625 L 240.675781 238.238281 L 240.148438 238.015625 Z M 30.300781 98.289062 L 227.625 182.4375 L 227.324219 183.113281 L 30 98.964844 Z M 0.898438 135.113281 L 240.449219 237.265625 L 240.148438 237.9375 L 0.601562 135.789062 Z M 239.925781 237.640625 L 239.925781 202.238281 L 240.675781 202.238281 L 240.675781 237.640625 Z M 0.375 135.414062 L 0.375 118.015625 L 1.125 118.015625 L 1.125 135.414062 Z M 227.625 182.4375 C 235.574219 185.8125 240.675781 193.613281 240.675781 202.238281 L 239.925781 202.238281 C 239.925781 193.914062 234.976562 186.414062 227.324219 183.1875 Z M 30 98.964844 C 16.351562 93.113281 1.125 103.164062 1.125 118.015625 L 0.375 118.015625 C 0.375 102.640625 16.125 92.214844 30.300781 98.289062 Z M 30 98.964844 " fill-opacity="1" fill-rule="nonzero"/><path fill="#3580b1" d="M 227.476562 380.140625 L 30.148438 295.914062 C 16.199219 289.988281 0.75 300.265625 0.75 315.339844 L 0.75 332.738281 L 240.300781 434.890625 L 240.300781 399.488281 C 240.300781 391.089844 235.273438 383.4375 227.476562 380.140625 Z M 227.476562 380.140625 " fill-opacity="1" fill-rule="nonzero"/><g clip-path="url(#92fc9fee05)"><path fill="#3580b1" d="M 0.75 36.789062 L 0.601562 37.164062 L 0.375 37.089844 L 0.375 36.863281 L 0.75 36.863281 Z M 240.300781 138.9375 L 240.675781 138.9375 L 240.675781 139.539062 L 240.148438 139.3125 Z M 30.300781 -0.335938 L 227.625 83.8125 L 227.324219 84.488281 L 30 0.339844 Z M 0.898438 36.488281 L 240.449219 138.640625 L 240.148438 139.3125 L 0.601562 37.164062 Z M 239.925781 138.9375 L 239.925781 103.539062 L 240.675781 103.539062 L 240.675781 138.9375 Z M 0.375 36.789062 L 0.375 19.464844 L 1.125 19.464844 L 1.125 36.863281 L 0.375 36.863281 Z M 227.625 83.8125 C 235.574219 87.1875 240.675781 94.988281 240.675781 103.613281 L 239.925781 103.613281 C 239.925781 95.289062 234.976562 87.789062 227.324219 84.5625 Z M 30 0.339844 C 16.351562 -5.511719 1.125 4.539062 1.125 19.464844 L 0.375 19.464844 C 0.375 4.089844 16.125 -6.335938 30.300781 -0.335938 Z M 30 0.339844 " fill-opacity="1" fill-rule="nonzero"/></g><g clip-path="url(#c84d9679ca)"><path fill="#3580b1" d="M 479.851562 -12.5625 L 479.699219 -12.9375 L 480.226562 -13.160156 L 480.226562 -12.5625 Z M 240.300781 138.9375 L 240.449219 139.3125 L 239.925781 139.539062 L 239.925781 138.9375 Z M 467.023438 42.265625 L 466.875 41.890625 Z M 252.976562 83.8125 L 479.773438 -12.859375 L 480.074219 -12.1875 L 253.273438 84.488281 Z M 240.148438 138.640625 L 466.875 41.890625 L 467.175781 42.5625 L 240.449219 139.3125 Z M 239.925781 138.9375 L 239.925781 103.539062 L 240.675781 103.539062 L 240.675781 138.9375 Z M 479.476562 22.839844 L 479.476562 -12.5625 L 480.226562 -12.5625 L 480.226562 22.839844 Z M 466.875 41.890625 C 474.523438 38.664062 479.476562 31.089844 479.476562 22.839844 L 480.226562 22.839844 C 480.226562 31.464844 475.050781 39.1875 467.175781 42.640625 Z M 253.273438 84.488281 C 245.625 87.714844 240.675781 95.289062 240.675781 103.539062 L 239.925781 103.539062 C 239.925781 94.914062 245.101562 87.1875 252.976562 83.738281 Z M 253.273438 84.488281 " fill-opacity="1" fill-rule="nonzero"/></g><path fill="#3580b1" d="M 0.75 234.113281 L 0.601562 234.488281 L 0.375 234.414062 L 0.375 234.1875 L 0.75 234.1875 Z M 240.300781 336.265625 L 240.675781 336.265625 L 240.675781 336.863281 L 240.148438 336.640625 Z M 30.300781 196.988281 L 227.625 281.140625 L 227.324219 281.8125 L 30 197.664062 Z M 0.898438 233.738281 L 240.449219 335.890625 L 240.148438 336.5625 L 0.601562 234.414062 Z M 239.925781 336.265625 L 239.925781 300.863281 L 240.675781 300.863281 L 240.675781 336.265625 Z M 0.375 234.113281 L 0.375 216.714844 L 1.125 216.714844 L 1.125 234.113281 Z M 227.625 281.140625 C 235.574219 284.515625 240.675781 292.3125 240.675781 300.9375 L 239.925781 300.9375 C 239.925781 292.613281 234.976562 285.113281 227.324219 281.890625 Z M 30 197.664062 C 16.351562 191.8125 1.125 201.863281 1.125 216.714844 L 0.375 216.714844 C 0.375 201.339844 16.125 190.914062 30.300781 196.914062 Z M 30 197.664062 " fill-opacity="1" fill-rule="nonzero"/><path fill="#3580b1" d="M 959.324219 234.1875 L 959.175781 234.5625 L 959.699219 234.789062 L 959.699219 234.1875 Z M 719.773438 82.6875 L 719.925781 82.3125 L 719.398438 82.089844 L 719.398438 82.6875 Z M 946.5 179.4375 L 946.351562 179.8125 Z M 732.449219 137.890625 L 959.175781 234.5625 L 959.476562 233.890625 L 732.75 137.140625 Z M 719.625 83.0625 L 946.351562 179.738281 L 946.648438 179.0625 L 719.925781 82.390625 Z M 719.398438 82.6875 L 719.398438 118.089844 L 720.148438 118.089844 L 720.148438 82.6875 Z M 958.949219 198.863281 L 958.949219 234.265625 L 959.699219 234.265625 L 959.699219 198.863281 Z M 946.351562 179.738281 C 954 182.964844 958.949219 190.539062 958.949219 198.789062 L 959.699219 198.789062 C 959.699219 190.164062 954.601562 182.4375 946.648438 178.988281 Z M 732.75 137.140625 C 725.101562 133.914062 720.148438 126.339844 720.148438 118.089844 L 719.398438 118.089844 C 719.398438 126.714844 724.574219 134.4375 732.449219 137.890625 Z M 732.75 137.140625 " fill-opacity="1" fill-rule="nonzero"/><g clip-path="url(#b0e0a02e36)"><path fill="#3580b1" d="M 959.324219 36.9375 L 959.175781 37.3125 L 959.699219 37.539062 L 959.699219 36.9375 Z M 719.773438 -114.5625 L 719.925781 -114.9375 L 719.398438 -115.160156 L 719.398438 -114.5625 Z M 946.5 -17.886719 L 946.351562 -17.511719 Z M 732.449219 -59.4375 L 959.175781 37.238281 L 959.476562 36.5625 L 732.75 -60.109375 Z M 719.625 -114.261719 L 946.351562 -17.585938 L 946.648438 -18.261719 L 719.925781 -114.9375 Z M 719.398438 -114.5625 L 719.398438 -79.160156 L 720.148438 -79.160156 L 720.148438 -114.5625 Z M 958.949219 1.539062 L 958.949219 36.9375 L 959.699219 36.9375 L 959.699219 1.539062 Z M 946.351562 -17.511719 C 954 -14.285156 958.949219 -6.710938 958.949219 1.539062 L 959.699219 1.539062 C 959.699219 -7.085938 954.601562 -14.8125 946.648438 -18.261719 Z M 732.75 -60.109375 C 725.101562 -63.335938 720.148438 -70.910156 720.148438 -79.160156 L 719.398438 -79.160156 C 719.398438 -70.535156 724.574219 -62.8125 732.449219 -59.359375 Z M 732.75 -60.109375 " fill-opacity="1" fill-rule="nonzero"/></g><g clip-path="url(#da6c128dc0)"><path fill="#3580b1" d="M 959.324219 135.5625 L 959.175781 135.9375 L 959.699219 136.164062 L 959.699219 135.5625 Z M 719.773438 -15.9375 L 719.925781 -16.3125 L 719.398438 -16.535156 L 719.398438 -15.9375 Z M 946.5 80.738281 L 946.351562 81.113281 Z M 732.449219 39.1875 L 959.175781 135.863281 L 959.476562 135.1875 L 732.75 38.515625 Z M 719.625 -15.5625 L 946.351562 81.113281 L 946.648438 80.4375 L 719.925781 -16.234375 Z M 719.398438 -15.9375 L 719.398438 19.464844 L 720.148438 19.464844 L 720.148438 -15.9375 Z M 958.949219 100.164062 L 958.949219 135.5625 L 959.699219 135.5625 L 959.699219 100.164062 Z M 946.351562 81.113281 C 954 84.339844 958.949219 91.914062 958.949219 100.164062 L 959.699219 100.164062 C 959.699219 91.539062 954.601562 83.8125 946.648438 80.363281 Z M 732.75 38.515625 C 725.101562 35.289062 720.148438 27.714844 720.148438 19.464844 L 719.398438 19.464844 C 719.398438 28.089844 724.574219 35.8125 732.449219 39.265625 Z M 732.75 38.515625 " fill-opacity="1" fill-rule="nonzero"/></g><path fill="#3580b1" d="M 480.148438 184.914062 L 480 184.539062 L 479.773438 184.613281 L 479.773438 184.839844 L 480.148438 184.839844 Z M 719.773438 82.6875 L 720.148438 82.6875 L 720.148438 82.089844 L 719.625 82.3125 Z M 509.699219 222.039062 L 707.023438 137.890625 L 706.726562 137.214844 L 509.398438 221.363281 Z M 480.300781 185.214844 L 719.851562 83.0625 L 719.550781 82.390625 L 480 184.539062 Z M 719.398438 82.6875 L 719.398438 118.089844 L 720.148438 118.089844 L 720.148438 82.6875 Z M 479.773438 184.914062 L 479.773438 202.3125 L 480.523438 202.3125 L 480.523438 184.914062 Z M 707.023438 137.890625 C 714.976562 134.515625 720.074219 126.714844 720.074219 118.089844 L 719.324219 118.089844 C 719.324219 126.414062 714.375 133.914062 706.726562 137.140625 Z M 509.398438 221.363281 C 495.75 227.214844 480.523438 217.164062 480.523438 202.3125 L 479.773438 202.3125 C 479.773438 217.6875 495.523438 228.113281 509.699219 222.113281 Z M 509.398438 221.363281 " fill-opacity="1" fill-rule="nonzero"/><g clip-path="url(#511072646b)"><path fill="#3580b1" d="M 480.148438 -12.410156 L 480 -12.785156 L 479.773438 -12.710938 L 479.773438 -12.484375 L 480.148438 -12.484375 Z M 719.773438 -114.5625 L 720.148438 -114.5625 L 720.148438 -115.160156 L 719.625 -114.9375 Z M 509.699219 24.714844 L 707.023438 -59.4375 L 706.726562 -60.109375 L 509.398438 24.039062 Z M 480.300781 -12.035156 L 719.851562 -114.1875 L 719.550781 -114.859375 L 480 -12.785156 Z M 719.398438 -114.5625 L 719.398438 -79.160156 L 720.148438 -79.160156 L 720.148438 -114.5625 Z M 479.773438 -12.410156 L 479.773438 4.988281 L 480.523438 4.988281 L 480.523438 -12.410156 Z M 707.023438 -59.4375 C 714.976562 -62.8125 720.074219 -70.609375 720.074219 -79.234375 L 719.324219 -79.234375 C 719.324219 -70.910156 714.375 -63.410156 706.726562 -60.1875 Z M 509.398438 24.039062 C 495.75 29.890625 480.523438 19.839844 480.523438 4.988281 L 479.773438 4.988281 C 479.773438 20.363281 495.523438 30.789062 509.699219 24.789062 Z M 509.398438 24.039062 " fill-opacity="1" fill-rule="nonzero"/></g><path fill="#3580b1" d="M 480.148438 283.539062 L 480 283.164062 L 479.773438 283.238281 L 479.773438 283.464844 L 480.148438 283.464844 Z M 719.773438 181.390625 L 720.148438 181.390625 L 720.148438 180.789062 L 719.625 181.015625 Z M 509.699219 320.664062 L 707.023438 236.515625 L 706.726562 235.839844 L 509.398438 319.988281 Z M 480.300781 283.914062 L 719.851562 181.765625 L 719.550781 181.089844 L 480 283.164062 Z M 719.398438 181.390625 L 719.398438 216.789062 L 720.148438 216.789062 L 720.148438 181.390625 Z M 479.773438 283.539062 L 479.773438 300.9375 L 480.523438 300.9375 L 480.523438 283.539062 Z M 707.023438 236.515625 C 714.976562 233.140625 720.074219 225.339844 720.074219 216.714844 L 719.324219 216.714844 C 719.324219 225.039062 714.375 232.539062 706.726562 235.765625 Z M 509.398438 319.988281 C 495.75 325.839844 480.523438 315.789062 480.523438 300.9375 L 479.773438 300.9375 C 479.773438 316.3125 495.523438 326.738281 509.699219 320.738281 Z M 509.398438 319.988281 " fill-opacity="1" fill-rule="nonzero"/><g clip-path="url(#85beb8efa4)"><path fill="#3580b1" d="M 480.148438 86.214844 L 480 85.839844 L 479.773438 85.914062 L 479.773438 86.140625 L 480.148438 86.140625 Z M 719.773438 -15.9375 L 720.148438 -15.9375 L 720.148438 -16.535156 L 719.625 -16.3125 Z M 509.699219 123.339844 L 707.023438 39.1875 L 706.726562 38.515625 L 509.398438 122.664062 Z M 480.300781 86.589844 L 719.925781 -15.5625 L 719.625 -16.234375 L 480 85.914062 Z M 719.398438 -15.9375 L 719.398438 19.464844 L 720.148438 19.464844 L 720.148438 -15.9375 Z M 479.773438 86.214844 L 479.773438 103.613281 L 480.523438 103.613281 L 480.523438 86.214844 Z M 707.023438 39.1875 C 714.976562 35.8125 720.074219 28.015625 720.074219 19.390625 L 719.324219 19.390625 C 719.324219 27.714844 714.375 35.214844 706.726562 38.4375 Z M 509.398438 122.664062 C 495.75 128.515625 480.523438 118.464844 480.523438 103.613281 L 479.773438 103.613281 C 479.773438 118.988281 495.523438 129.414062 509.699219 123.414062 Z M 509.398438 122.664062 " fill-opacity="1" fill-rule="nonzero"/></g><path fill="#3580b1" d="M 959.324219 332.890625 L 959.175781 333.265625 L 959.699219 333.488281 L 959.699219 332.890625 Z M 719.773438 181.390625 L 719.925781 181.015625 L 719.398438 180.789062 L 719.398438 181.390625 Z M 946.5 278.0625 L 946.351562 278.4375 Z M 732.449219 236.515625 L 959.175781 333.1875 L 959.476562 332.515625 L 732.75 235.839844 Z M 719.625 181.6875 L 946.351562 278.363281 L 946.648438 277.6875 L 719.925781 181.015625 Z M 719.398438 181.390625 L 719.398438 216.789062 L 720.148438 216.789062 L 720.148438 181.390625 Z M 958.949219 297.488281 L 958.949219 332.890625 L 959.699219 332.890625 L 959.699219 297.488281 Z M 946.351562 278.4375 C 954 281.664062 958.949219 289.238281 958.949219 297.488281 L 959.699219 297.488281 C 959.699219 288.863281 954.601562 281.140625 946.648438 277.6875 Z M 732.75 235.839844 C 725.101562 232.613281 720.148438 225.039062 720.148438 216.789062 L 719.398438 216.789062 C 719.398438 225.414062 724.574219 233.140625 732.449219 236.589844 Z M 732.75 235.839844 " fill-opacity="1" fill-rule="nonzero"/><path fill="#3580b1" d="M 1409.476562 197.289062 L 1212 281.515625 C 1204.199219 284.8125 1199.175781 292.464844 1199.175781 300.9375 L 1199.175781 336.339844 L 1438.726562 234.1875 L 1438.726562 216.640625 C 1438.726562 201.5625 1423.351562 191.363281 1409.476562 197.289062 Z M 1409.476562 197.289062 " fill-opacity="1" fill-rule="nonzero"/><g clip-path="url(#6c82215b9b)"><path fill="#3580b1" d="M 1199.175781 40.390625 L 1199.324219 40.765625 L 1198.800781 40.988281 L 1198.800781 40.390625 Z M 1438.726562 -61.761719 L 1439.101562 -61.761719 L 1439.101562 -61.535156 L 1438.875 -61.460938 Z M 1409.476562 -98.660156 L 1409.324219 -99.035156 Z M 1211.851562 -14.734375 L 1409.324219 -98.960938 L 1409.625 -98.285156 L 1212.148438 -14.0625 Z M 1199.023438 40.015625 L 1438.574219 -62.136719 L 1438.875 -61.460938 L 1199.324219 40.765625 Z M 1198.800781 40.390625 L 1198.800781 4.988281 L 1199.550781 4.988281 L 1199.550781 40.390625 Z M 1438.351562 -61.761719 L 1438.351562 -79.3125 L 1439.101562 -79.3125 L 1439.101562 -61.761719 Z M 1409.324219 -98.960938 C 1423.425781 -104.960938 1439.101562 -94.609375 1439.101562 -79.3125 L 1438.351562 -79.3125 C 1438.351562 -94.085938 1423.199219 -104.0625 1409.625 -98.285156 Z M 1212.148438 -14.0625 C 1204.5 -10.835938 1199.550781 -3.261719 1199.550781 4.988281 L 1198.800781 4.988281 C 1198.800781 -3.636719 1203.898438 -11.359375 1211.851562 -14.8125 Z M 1212.148438 -14.0625 " fill-opacity="1" fill-rule="nonzero"/></g><path fill="#3580b1" d="M 1199.175781 237.714844 L 1199.324219 238.089844 L 1198.800781 238.3125 L 1198.800781 237.714844 Z M 1438.726562 135.488281 L 1439.101562 135.488281 L 1439.101562 135.714844 L 1438.875 135.789062 Z M 1409.476562 98.664062 L 1409.324219 98.289062 Z M 1211.851562 182.515625 L 1409.324219 98.289062 L 1409.625 98.964844 L 1212.148438 183.1875 Z M 1199.023438 237.339844 L 1438.574219 135.1875 L 1438.875 135.863281 L 1199.324219 238.015625 Z M 1198.800781 237.714844 L 1198.800781 202.3125 L 1199.550781 202.3125 L 1199.550781 237.714844 Z M 1438.351562 135.488281 L 1438.351562 117.9375 L 1439.101562 117.9375 L 1439.101562 135.488281 Z M 1409.324219 98.289062 C 1423.425781 92.289062 1439.101562 102.640625 1439.101562 117.9375 L 1438.351562 117.9375 C 1438.351562 103.164062 1423.199219 93.1875 1409.625 98.964844 Z M 1212.148438 183.265625 C 1204.5 186.488281 1199.550781 194.0625 1199.550781 202.3125 L 1198.800781 202.3125 C 1198.800781 193.6875 1203.898438 185.964844 1211.851562 182.515625 Z M 1212.148438 183.265625 " fill-opacity="1" fill-rule="nonzero"/><path fill="#3580b1" d="M 1199.175781 434.964844 L 1199.324219 435.339844 L 1198.800781 435.5625 L 1198.800781 434.964844 Z M 1438.726562 332.8125 L 1439.101562 332.8125 L 1439.101562 333.039062 L 1438.875 333.113281 Z M 1409.476562 295.988281 L 1409.324219 295.613281 Z M 1211.851562 379.839844 L 1409.324219 295.613281 L 1409.625 296.289062 L 1212.148438 380.515625 Z M 1199.023438 434.664062 L 1438.574219 332.515625 L 1438.875 333.1875 L 1199.324219 435.339844 Z M 1198.800781 434.964844 L 1198.800781 399.5625 L 1199.550781 399.5625 L 1199.550781 434.964844 Z M 1438.351562 332.8125 L 1438.351562 315.265625 L 1439.101562 315.265625 L 1439.101562 332.8125 Z M 1409.324219 295.613281 C 1423.425781 289.613281 1439.101562 299.964844 1439.101562 315.265625 L 1438.351562 315.265625 C 1438.351562 300.488281 1423.199219 290.515625 1409.625 296.289062 Z M 1212.148438 380.515625 C 1204.5 383.738281 1199.550781 391.3125 1199.550781 399.5625 L 1198.800781 399.5625 C 1198.800781 390.9375 1203.898438 383.214844 1211.851562 379.839844 Z M 1212.148438 380.515625 " fill-opacity="1" fill-rule="nonzero"/><g clip-path="url(#8147a57f40)"><path fill="#3580b1" d="M 1199.175781 139.015625 L 1199.324219 139.390625 L 1198.800781 139.613281 L 1198.800781 139.015625 Z M 1438.726562 36.863281 L 1439.101562 36.863281 L 1439.101562 37.089844 L 1438.875 37.164062 Z M 1409.476562 0.0390625 L 1409.324219 -0.335938 Z M 1211.851562 83.890625 L 1409.324219 -0.335938 L 1409.625 0.339844 L 1212.148438 84.5625 Z M 1199.023438 138.714844 L 1438.574219 36.5625 L 1438.875 37.238281 L 1199.324219 139.390625 Z M 1198.800781 139.015625 L 1198.800781 103.613281 L 1199.550781 103.613281 L 1199.550781 139.015625 Z M 1438.351562 36.863281 L 1438.351562 19.3125 L 1439.101562 19.3125 L 1439.101562 36.863281 Z M 1409.324219 -0.335938 C 1423.425781 -6.335938 1439.101562 4.015625 1439.101562 19.3125 L 1438.351562 19.3125 C 1438.351562 4.539062 1423.199219 -5.4375 1409.625 0.339844 Z M 1212.148438 84.5625 C 1204.5 87.789062 1199.550781 95.363281 1199.550781 103.613281 L 1198.800781 103.613281 C 1198.800781 94.988281 1203.898438 87.265625 1211.851562 83.890625 Z M 1212.148438 84.5625 " fill-opacity="1" fill-rule="nonzero"/></g><path fill="#3580b1" d="M 959.625 234.1875 L 959.476562 234.5625 L 959.25 234.488281 L 959.25 234.265625 L 959.625 234.265625 Z M 1199.175781 336.339844 L 1199.550781 336.339844 L 1199.550781 336.9375 L 1199.023438 336.714844 Z M 989.101562 197.0625 L 1186.5 281.214844 L 1186.199219 281.890625 L 988.875 197.738281 Z M 959.773438 233.8125 L 1199.324219 335.964844 L 1199.023438 336.640625 L 959.476562 234.488281 Z M 1198.800781 336.339844 L 1198.800781 300.9375 L 1199.550781 300.9375 L 1199.550781 336.339844 Z M 959.25 234.1875 L 959.25 216.789062 L 960 216.789062 L 960 234.1875 Z M 1186.5 281.214844 C 1194.449219 284.589844 1199.550781 292.390625 1199.550781 301.015625 L 1198.800781 301.015625 C 1198.800781 292.6875 1193.851562 285.1875 1186.199219 281.964844 Z M 988.875 197.738281 C 975.226562 191.890625 960 201.9375 960 216.789062 L 959.25 216.789062 C 959.25 201.414062 975 190.988281 989.175781 196.988281 Z M 988.875 197.738281 " fill-opacity="1" fill-rule="nonzero"/><g clip-path="url(#51ef6967fe)"><path fill="#3580b1" d="M 959.625 -61.761719 L 959.476562 -61.386719 L 959.25 -61.460938 L 959.25 -61.6875 L 959.625 -61.6875 Z M 1199.175781 40.390625 L 1199.550781 40.390625 L 1199.550781 40.988281 L 1199.023438 40.765625 Z M 989.101562 -98.886719 L 1186.5 -14.734375 L 1186.199219 -14.0625 L 988.875 -98.210938 Z M 959.773438 -62.136719 L 1199.324219 40.015625 L 1199.023438 40.6875 L 959.476562 -61.460938 Z M 1198.800781 40.390625 L 1198.800781 4.988281 L 1199.550781 4.988281 L 1199.550781 40.390625 Z M 959.25 -61.761719 L 959.25 -79.160156 L 960 -79.160156 L 960 -61.761719 Z M 1186.5 -14.734375 C 1194.449219 -11.359375 1199.550781 -3.5625 1199.550781 5.0625 L 1198.800781 5.0625 C 1198.800781 -3.261719 1193.851562 -10.761719 1186.199219 -13.984375 Z M 988.875 -98.210938 C 975.226562 -104.0625 960 -94.011719 960 -79.160156 L 959.25 -79.160156 C 959.25 -94.535156 975 -104.960938 989.175781 -98.960938 Z M 988.875 -98.210938 " fill-opacity="1" fill-rule="nonzero"/></g><path fill="#3580b1" d="M 959.625 135.488281 L 959.476562 135.863281 L 959.25 135.789062 L 959.25 135.5625 L 959.625 135.5625 Z M 1199.175781 237.714844 L 1199.550781 237.714844 L 1199.550781 238.3125 L 1199.023438 238.089844 Z M 989.101562 98.363281 L 1186.5 182.515625 L 1186.199219 183.1875 L 988.875 99.039062 Z M 959.773438 135.1875 L 1199.324219 237.339844 L 1199.023438 238.015625 L 959.476562 135.863281 Z M 1198.800781 237.714844 L 1198.800781 202.3125 L 1199.550781 202.3125 L 1199.550781 237.714844 Z M 959.25 135.488281 L 959.25 118.089844 L 960 118.089844 L 960 135.488281 Z M 1186.5 182.515625 C 1194.449219 185.890625 1199.550781 193.6875 1199.550781 202.3125 L 1198.800781 202.3125 C 1198.800781 193.988281 1193.851562 186.488281 1186.199219 183.265625 Z M 988.875 99.039062 C 975.226562 93.1875 960 103.238281 960 118.089844 L 959.25 118.089844 C 959.25 102.714844 975 92.289062 989.175781 98.289062 Z M 988.875 99.039062 " fill-opacity="1" fill-rule="nonzero"/><path fill="#3580b1" d="M 959.625 332.8125 L 959.476562 333.1875 L 959.25 333.113281 L 959.25 332.890625 L 959.625 332.890625 Z M 1199.175781 434.964844 L 1199.550781 434.964844 L 1199.550781 435.5625 L 1199.023438 435.339844 Z M 989.101562 295.6875 L 1186.5 379.839844 L 1186.199219 380.515625 L 988.875 296.363281 Z M 959.773438 332.4375 L 1199.324219 434.589844 L 1199.023438 435.265625 L 959.476562 333.113281 Z M 1198.800781 434.964844 L 1198.800781 399.5625 L 1199.550781 399.5625 L 1199.550781 434.964844 Z M 959.25 332.8125 L 959.25 315.414062 L 960 315.414062 L 960 332.8125 Z M 1186.5 379.839844 C 1194.449219 383.214844 1199.550781 391.015625 1199.550781 399.5625 L 1198.800781 399.5625 C 1198.800781 391.238281 1193.851562 383.738281 1186.199219 380.515625 Z M 988.875 296.363281 C 975.226562 290.515625 960 300.5625 960 315.414062 L 959.25 315.414062 C 959.25 300.039062 975 289.613281 989.175781 295.613281 Z M 988.875 296.363281 " fill-opacity="1" fill-rule="nonzero"/><g clip-path="url(#c5b0222f53)"><path fill="#3580b1" d="M 959.625 36.863281 L 959.476562 37.238281 L 959.25 37.164062 L 959.25 36.9375 L 959.625 36.9375 Z M 1199.175781 139.015625 L 1199.550781 139.015625 L 1199.550781 139.613281 L 1199.023438 139.390625 Z M 989.101562 -0.261719 L 1186.5 83.890625 L 1186.199219 84.5625 L 988.875 0.414062 Z M 959.773438 36.488281 L 1199.324219 138.640625 L 1199.023438 139.3125 L 959.476562 37.238281 Z M 1198.800781 139.015625 L 1198.800781 103.613281 L 1199.550781 103.613281 L 1199.550781 139.015625 Z M 959.25 36.863281 L 959.25 19.464844 L 960 19.464844 L 960 36.863281 Z M 1186.5 83.890625 C 1194.449219 87.265625 1199.550781 95.0625 1199.550781 103.613281 L 1198.800781 103.613281 C 1198.800781 95.289062 1193.851562 87.789062 1186.199219 84.5625 Z M 988.875 0.414062 C 975.226562 -5.4375 960 4.613281 960 19.464844 L 959.25 19.464844 C 959.25 4.089844 975 -6.335938 989.175781 -0.335938 Z M 988.875 0.414062 " fill-opacity="1" fill-rule="nonzero"/></g></g></g></g></svg>